<svg width="24" height="21" viewBox="0 0 24 21" fill="none" xmlns="http://www.w3.org/2000/svg">
<path d="M17 19.1953V17.1953C17 16.1344 16.5786 15.117 15.8284 14.3669C15.0783 13.6167 14.0609 13.1953 13 13.1953H5C3.93913 13.1953 2.92172 13.6167 2.17157 14.3669C1.42143 15.117 1 16.1344 1 17.1953V19.1953" stroke="#A3A3A3" stroke-width="2" stroke-linecap="round" stroke-linejoin="round"/>
<path d="M9 9.19531C11.2091 9.19531 13 7.40445 13 5.19531C13 2.98617 11.2091 1.19531 9 1.19531C6.79086 1.19531 5 2.98617 5 5.19531C5 7.40445 6.79086 9.19531 9 9.19531Z" stroke="#A3A3A3" stroke-width="2" stroke-linecap="round" stroke-linejoin="round"/>
<path d="M23 19.1942V17.1942C22.9993 16.3079 22.7044 15.447 22.1614 14.7465C21.6184 14.0461 20.8581 13.5458 20 13.3242" stroke="#A3A3A3" stroke-width="2" stroke-linecap="round" stroke-linejoin="round"/>
<path d="M16 1.32422C16.8604 1.54452 17.623 2.04492 18.1676 2.74653C18.7122 3.44814 19.0078 4.31105 19.0078 5.19922C19.0078 6.08739 18.7122 6.9503 18.1676 7.65191C17.623 8.35352 16.8604 8.85392 16 9.07422" stroke="#A3A3A3" stroke-width="2" stroke-linecap="round" stroke-linejoin="round"/>
</svg>
