<svg width="20" height="23" viewBox="0 0 20 23" fill="none" xmlns="http://www.w3.org/2000/svg">
<path d="M14.2426 2.95267C15.3679 4.07789 16 5.60401 16 7.19531C16 14.1953 19 16.1953 19 16.1953H1C1 16.1953 4 14.1953 4 7.19531C4 5.60401 4.63214 4.07789 5.75736 2.95267C6.88258 1.82745 8.4087 1.19531 10 1.19531C11.5913 1.19531 13.1174 1.82745 14.2426 2.95267Z" stroke="#A3A3A3" stroke-width="2" stroke-linecap="round" stroke-linejoin="round"/>
<path d="M11.73 20.1953C11.5542 20.4984 11.3019 20.75 10.9982 20.9248C10.6946 21.0997 10.3504 21.1918 10 21.1918C9.64964 21.1918 9.30541 21.0997 9.00179 20.9248C8.69818 20.75 8.44583 20.4984 8.27002 20.1953" stroke="#A3A3A3" stroke-width="2" stroke-linecap="round" stroke-linejoin="round"/>
</svg>
